<svg width="19" height="18" viewBox="0 0 19 18" fill="none" xmlns="http://www.w3.org/2000/svg">
<path d="M3.62146 7.79C5.06146 10.62 7.38146 12.94 10.2115 14.38L12.4115 12.18C12.6915 11.9 13.0815 11.82 13.4315 11.93C14.5515 12.3 15.7515 12.5 17.0015 12.5C17.2667 12.5 17.521 12.6054 17.7086 12.7929C17.8961 12.9804 18.0015 13.2348 18.0015 13.5V17C18.0015 17.2652 17.8961 17.5196 17.7086 17.7071C17.521 17.8946 17.2667 18 17.0015 18C12.4928 18 8.16877 16.2089 4.98065 13.0208C1.79253 9.8327 0.00146484 5.50868 0.00146484 1C0.00146484 0.734784 0.106822 0.48043 0.294358 0.292893C0.481894 0.105357 0.736248 0 1.00146 0H4.50146C4.76668 0 5.02104 0.105357 5.20857 0.292893C5.39611 0.48043 5.50146 0.734784 5.50146 1C5.50146 2.25 5.70146 3.45 6.07146 4.57C6.18146 4.92 6.10146 5.31 5.82146 5.59L3.62146 7.79Z" fill="#EED812"/>
</svg>
