<svg width="23" height="25" viewBox="0 0 23 25" fill="none" xmlns="http://www.w3.org/2000/svg">
<path d="M20.1915 2.33691C19.5965 1.79191 17.1865 0.0399056 11.8195 0.0169056C11.8195 0.0169056 5.48646 -0.362094 2.40146 2.46891C0.685456 4.18491 0.0844555 6.69791 0.0154555 9.81491C-0.0535445 12.9319 -0.130545 18.7739 5.50046 20.3619H5.50546L5.50046 22.7809C5.50046 22.7809 5.46346 23.7609 6.10746 23.9579C6.88546 24.2019 7.34546 23.4559 8.09046 22.6539C8.49846 22.2129 9.06046 21.5669 9.48746 21.0739C11.9345 21.3006 14.4022 21.1122 16.7865 20.5169L16.6365 20.5489C17.4145 20.2959 21.8165 19.7329 22.5285 13.8919C23.2725 7.86191 22.1745 4.05791 20.1915 2.33691V2.33691ZM20.8435 13.4519C20.2365 18.3269 16.6705 18.6369 16.0145 18.8469C14.5825 19.2109 12.9385 19.4189 11.2455 19.4189C10.7595 19.4189 10.2775 19.4019 9.80046 19.3679L9.86446 19.3719C9.86446 19.3719 7.42646 22.3109 6.66746 23.0749C6.41946 23.3229 6.14646 23.3029 6.15146 22.8079C6.15146 22.4849 6.17046 18.7899 6.17046 18.7899C1.40346 17.4679 1.67946 12.4919 1.73546 9.89291C1.79146 7.29391 2.27946 5.15791 3.73246 3.72391C6.34446 1.35691 11.7215 1.70791 11.7215 1.70791C16.2645 1.72691 18.4395 3.09591 18.9455 3.55491C20.6195 4.98991 21.4725 8.42191 20.8435 13.4509V13.4519ZM14.3325 9.66391V9.67791C14.3303 9.75578 14.2984 9.82987 14.2433 9.88489C14.1881 9.93991 14.114 9.97166 14.0361 9.97359C13.9582 9.97551 13.8826 9.94746 13.8248 9.89524C13.767 9.84301 13.7314 9.77058 13.7255 9.69291V9.69191C13.7458 9.48312 13.7206 9.2724 13.6516 9.0743C13.5826 8.87619 13.4715 8.69541 13.3258 8.54444C13.1802 8.39347 13.0035 8.2759 12.808 8.19984C12.6125 8.12378 12.4028 8.09105 12.1935 8.10391H12.1975C12.1197 8.09789 12.0473 8.06225 11.9951 8.00435C11.9429 7.94645 11.915 7.87072 11.917 7.7928C11.9191 7.71489 11.951 7.64073 12.0062 7.58567C12.0613 7.5306 12.1355 7.49882 12.2135 7.49691H12.2305H12.2295L12.2985 7.49591C12.5776 7.49581 12.8539 7.55311 13.11 7.66424C13.3661 7.77537 13.5966 7.93797 13.7873 8.14193C13.9779 8.34589 14.1246 8.58686 14.2182 8.84988C14.3118 9.1129 14.3504 9.39236 14.3315 9.67091V9.66491L14.3325 9.66391ZM15.2835 10.1949C15.3305 8.20691 14.0885 6.65091 11.7305 6.47691C11.6895 6.47563 11.6493 6.4661 11.6122 6.44889C11.575 6.43168 11.5417 6.40715 11.5143 6.37677C11.4869 6.34638 11.4659 6.31077 11.4525 6.27207C11.4392 6.23337 11.4338 6.19237 11.4367 6.15154C11.4396 6.1107 11.4507 6.07088 11.4694 6.03445C11.4881 5.99801 11.5139 5.96573 11.5453 5.93952C11.5768 5.91331 11.6132 5.89373 11.6524 5.88194C11.6916 5.87015 11.7328 5.86639 11.7735 5.87091H11.7725H11.7895C12.3491 5.87089 12.9028 5.98526 13.4166 6.20699C13.9303 6.42873 14.3934 6.75315 14.7773 7.16033C15.1611 7.56752 15.4577 8.04887 15.6488 8.57484C15.8399 9.1008 15.9214 9.66028 15.8885 10.2189L15.8895 10.2079C15.8841 10.2854 15.8493 10.3579 15.7921 10.4106C15.735 10.4632 15.6599 10.4919 15.5822 10.4909C15.5045 10.4899 15.4301 10.4592 15.3744 10.405C15.3187 10.3509 15.2858 10.2775 15.2825 10.1999V10.1919L15.2835 10.1949ZM17.4835 10.8239V10.8259C17.4794 10.9034 17.4459 10.9764 17.3897 11.03C17.3335 11.0836 17.259 11.1137 17.1814 11.114C17.1038 11.1144 17.0289 11.0851 16.9722 11.0321C16.9155 10.9791 16.8813 10.9064 16.8765 10.8289C16.8525 7.00691 14.3035 4.92591 11.2145 4.90391C11.1747 4.90391 11.1353 4.89607 11.0985 4.88084C11.0617 4.86561 11.0283 4.84329 11.0002 4.81516C10.9721 4.78702 10.9497 4.75362 10.9345 4.71686C10.9193 4.6801 10.9115 4.6407 10.9115 4.60091C10.9115 4.56111 10.9193 4.52171 10.9345 4.48495C10.9497 4.44819 10.9721 4.41479 11.0002 4.38665C11.0283 4.35852 11.0617 4.3362 11.0985 4.32097C11.1353 4.30574 11.1747 4.29791 11.2145 4.29791C14.6735 4.32191 17.4535 6.70891 17.4815 10.8229L17.4835 10.8239ZM16.9585 15.4219V15.4309C16.4525 16.3219 15.5055 17.3059 14.5305 16.9919L14.5215 16.9779C12.7831 16.3382 11.1537 15.4346 9.69046 14.2989L9.73145 14.3289C9.00334 13.7508 8.34282 13.0923 7.76246 12.3659L7.74346 12.3409C7.21796 11.6794 6.74898 10.9749 6.34146 10.2349L6.30146 10.1559C5.8193 9.36102 5.41956 8.51899 5.10846 7.64291L5.07846 7.54491C4.76446 6.56991 5.74346 5.62291 6.63946 5.11691H6.64846C6.82473 5.00407 7.0364 4.96015 7.24302 4.99354C7.44963 5.02693 7.6367 5.13529 7.76846 5.29791L7.76946 5.29991C7.76946 5.29991 8.35045 5.99291 8.59945 6.33591C8.83345 6.65491 9.14846 7.16591 9.31146 7.45091C9.43418 7.64565 9.48413 7.8775 9.45247 8.1055C9.42082 8.33349 9.30959 8.54297 9.13846 8.69691L9.13745 8.69791L8.57546 9.14791C8.48783 9.23248 8.42012 9.33549 8.37722 9.44947C8.33433 9.56345 8.31733 9.68554 8.32746 9.80691V9.80391C8.60573 10.7312 9.10798 11.5758 9.78988 12.2631C10.4718 12.9504 11.3124 13.4593 12.2375 13.7449L12.2795 13.7559C12.4002 13.7654 12.5216 13.7482 12.635 13.7055C12.7484 13.6629 12.851 13.5957 12.9355 13.5089L13.3855 12.9469C13.54 12.775 13.7506 12.6635 13.9796 12.6322C14.2087 12.6009 14.4414 12.6518 14.6365 12.7759L14.6325 12.7739C15.4455 13.2369 16.1485 13.7459 16.7895 14.3229L16.7785 14.3129C16.9411 14.4426 17.0493 14.6284 17.0819 14.8338C17.1144 15.0392 17.069 15.2493 16.9545 15.4229L16.9565 15.4199L16.9585 15.4219Z" fill="#EED812"/>
</svg>
